# File created by Blade
# Date/Time:  Tue Jan 27 19:18:41 2015
# Frame Rate: 120.000 fps
#------------------------------------------------------
:FULLY-SPECIFIED
:DEGREES
2206
root 3.941551 32.290422 1.271073 -3.215003 -0.128080 0.308112
Spine -0.749060 6.568446 1.434524
Head 8.655082 -20.604394 -10.417144
LeftShoulder -4.334062 -6.008746 23.589971
LeftArm -7.230084 43.160867 -104.115730
LeftForeArm 3.525169 -0.000000 16.507862
LeftHand 10.513618 -0.000000 -5.264683
LeftHandThumb1 -26.253704 0.000000 33.147579
RightShoulder -10.890861 4.754622 -40.436586
RightArm 49.613228 61.950241 83.545353
RightForeArm 20.600565 -0.000000 98.309952
RightHand 29.194782 -0.000000 -18.074420
RightHandThumb1 -24.326973 -0.000000 -32.862282
LeftUpLeg 10.522274 1.326989 -0.342477
LeftLeg 2.131236 -0.000000 -0.000000
LeftFoot -18.414708 12.178293 -23.346708
LeftToeBase 16.520039 -0.000000 -0.000000
RightUpLeg 9.359168 -7.653605 1.300088
RightLeg 0.318681 -0.000000 -0.000000
RightFoot -12.857191 -13.747020 14.026540
RightToeBase 10.227963 -0.000000 -0.000000
2207
root 3.938049 32.290522 1.280232 -3.204358 -0.148052 0.309706
Spine -0.754859 6.422361 1.400615
Head 8.640605 -20.454978 -10.340661
LeftShoulder -4.360115 -6.004021 23.600940
LeftArm -7.258740 43.221871 -104.148948
LeftForeArm 3.532400 0.000000 16.474759
LeftHand 10.292099 -0.000000 -5.762146
LeftHandThumb1 -26.253704 0.000000 33.147579
RightShoulder -11.016274 4.579947 -40.442752
RightArm 47.737591 62.123993 81.202079
RightForeArm 20.699864 -0.000000 98.331747
RightHand 29.187949 0.000000 -18.143405
RightHandThumb1 -24.326973 -0.000000 -32.862282
LeftUpLeg 10.534310 1.329209 -0.336094
LeftLeg 2.113794 -0.000000 -0.000000
LeftFoot -18.424850 12.246043 -23.194355
LeftToeBase 16.873816 -0.000000 -0.000000
RightUpLeg 9.361300 -7.630862 1.307005
RightLeg 0.323451 -0.000000 -0.000000
RightFoot -12.872952 -13.746514 14.032545
RightToeBase 10.265696 -0.000000 -0.000000
2208
root 3.934588 32.290212 1.289570 -3.187530 -0.156818 0.311124
Spine -0.762393 6.248351 1.362612
Head 8.606300 -20.352223 -10.227218
LeftShoulder -4.438399 -5.969307 23.616698
LeftArm -7.231700 43.318761 -104.167135
LeftForeArm 3.566467 0.000000 16.381731
LeftHand 10.204844 -0.000000 -5.791250
LeftHandThumb1 -26.253704 0.000000 33.147579
RightShoulder -11.117734 4.338828 -40.447926
RightArm 46.112844 62.353466 79.158568
RightForeArm 20.824579 -0.000000 98.348866
RightHand 29.154552 -0.000000 -17.875009
RightHandThumb1 -24.326973 -0.000000 -32.862282
LeftUpLeg 10.536587 1.332725 -0.329861
LeftLeg 2.111289 -0.000000 -0.000000
LeftFoot -18.428072 12.246387 -23.192102
LeftToeBase 16.914450 -0.000000 -0.000000
RightUpLeg 9.365244 -7.608205 1.315097
RightLeg 0.314145 -0.000000 -0.000000
RightFoot -12.887625 -13.759475 14.041441
RightToeBase 10.256055 -0.000000 -0.000000
2209
root 3.928573 32.288828 1.298748 -3.174207 -0.155177 0.316471
Spine -0.785974 6.073718 1.306898
Head 8.626733 -20.383088 -10.171976
LeftShoulder -4.475103 -5.924595 23.636711
LeftArm -7.196492 43.375951 -104.168214
LeftForeArm 3.561556 -0.000000 16.278824
LeftHand 10.312238 -0.000000 -5.487792
LeftHandThumb1 -26.253704 0.000000 33.147579
RightShoulder -11.223221 4.123296 -40.438847
RightArm 44.356763 62.528612 76.988842
RightForeArm 20.858479 0.000000 98.319298
RightHand 29.118701 -0.000000 -17.754120
RightHandThumb1 -24.326973 -0.000000 -32.862282
LeftUpLeg 10.541031 1.242089 -0.343113
LeftLeg 2.110755 -0.000000 -0.000000
LeftFoot -18.467431 12.315382 -23.210918
LeftToeBase 16.861840 -0.000000 -0.000000
RightUpLeg 9.378209 -7.570186 1.318577
RightLeg 0.302199 -0.000000 -0.000000
RightFoot -12.926047 -13.741134 14.119011
RightToeBase 10.276995 -0.000000 -0.000000
2210
root 3.923859 32.288749 1.305401 -3.152854 -0.152478 0.314375
Spine -0.819826 5.903749 1.283829
Head 8.642289 -20.393031 -10.126969
LeftShoulder -4.495554 -5.898380 23.617531
LeftArm -7.188024 43.382824 -104.156440
LeftForeArm 3.582426 -0.000000 16.202207
LeftHand 10.422820 0.000000 -5.578671
LeftHandThumb1 -26.253704 0.000000 33.147579
RightShoulder -11.368155 3.837463 -40.419450
RightArm 42.668100 62.618618 74.843799
RightForeArm 20.898859 -0.000000 98.296822
RightHand 29.165383 -0.000000 -17.944360
RightHandThumb1 -24.326973 -0.000000 -32.862282
LeftUpLeg 10.524469 1.203712 -0.339162
LeftLeg 2.125346 -0.000000 -0.000000
LeftFoot -18.487802 12.321835 -23.245174
LeftToeBase 16.878189 -0.000000 -0.000000
RightUpLeg 9.364473 -7.575391 1.332252
RightLeg 0.310783 -0.000000 -0.000000
RightFoot -12.939503 -13.750788 14.124265
RightToeBase 10.311676 -0.000000 -0.000000
2211
root 3.919984 32.288508 1.316601 -3.147396 -0.153763 0.321115
Spine -0.832082 5.770934 1.232095
Head 8.634195 -20.384038 -10.013653
LeftShoulder -4.518189 -5.920737 23.644703
LeftArm -7.221474 43.398489 -104.217029
LeftForeArm 3.683366 -0.000000 16.132135
LeftHand 10.416254 0.000000 -5.547391
LeftHandThumb1 -26.253704 0.000000 33.147579
RightShoulder -11.517818 3.555723 -40.398147
RightArm 40.925611 62.779096 72.726846
RightForeArm 20.948985 -0.000000 98.287191
RightHand 29.262296 -0.000000 -17.778644
RightHandThumb1 -24.326973 -0.000000 -32.862282
LeftUpLeg 10.543174 1.159757 -0.348431
LeftLeg 2.125319 -0.000000 -0.000000
LeftFoot -18.515306 12.350451 -23.261812
LeftToeBase 16.877862 -0.000000 -0.000000
RightUpLeg 9.386221 -7.568905 1.332533
RightLeg 0.298193 -0.000000 -0.000000
RightFoot -12.960787 -13.758897 14.124520
RightToeBase 10.307583 -0.000000 -0.000000
2212
root 3.914738 32.288495 1.326434 -3.136328 -0.148227 0.318259
Spine -0.854333 5.643641 1.188018
Head 8.643401 -20.359181 -9.907799
LeftShoulder -4.536008 -5.935206 23.672630
LeftArm -7.239727 43.397171 -104.265360
LeftForeArm 3.733809 -0.000000 16.074916
LeftHand 10.303574 0.000000 -5.476215
LeftHandThumb1 -26.253704 0.000000 33.147579
RightShoulder -11.680537 3.204940 -40.356498
RightArm 39.232443 62.910703 70.662261
RightForeArm 20.852405 -0.000000 98.304095
RightHand 29.303078 0.000000 -17.646100
RightHandThumb1 -24.326973 -0.000000 -32.862282
LeftUpLeg 10.549424 1.125386 -0.338583
LeftLeg 2.116762 -0.000000 -0.000000
LeftFoot -18.511216 12.354532 -23.283444
LeftToeBase 16.851020 -0.000000 -0.000000
RightUpLeg 9.390941 -7.593284 1.341431
RightLeg 0.303368 -0.000000 -0.000000
RightFoot -12.951972 -13.756411 14.094011
RightToeBase 10.251429 -0.000000 -0.000000
2213
root 3.909347 32.287887 1.337385 -3.132476 -0.132732 0.317610
Spine -0.870723 5.490220 1.146982
Head 8.655293 -20.305767 -9.817949
LeftShoulder -4.585845 -5.902851 23.698740
LeftArm -7.208867 43.404980 -104.272898
LeftForeArm 3.776329 -0.000000 16.029400
LeftHand 10.339719 -0.000000 -5.484230
LeftHandThumb1 -26.253704 0.000000 33.147579
RightShoulder -11.838360 2.846796 -40.335099
RightArm 37.670235 63.055945 68.807722
RightForeArm 20.688744 0.000000 98.345056
RightHand 29.261863 -0.000000 -17.707316
RightHandThumb1 -24.326973 -0.000000 -32.862282
LeftUpLeg 10.569344 1.070897 -0.335279
LeftLeg 2.104650 -0.000000 -0.000000
LeftFoot -18.521387 12.393266 -23.271762
LeftToeBase 16.903562 -0.000000 -0.000000
RightUpLeg 9.412272 -7.610938 1.349684
RightLeg 0.297378 -0.000000 -0.000000
RightFoot -12.960358 -13.766200 14.083087
RightToeBase 10.277058 -0.000000 -0.000000
2214
root 3.905205 32.287522 1.348501 -3.133489 -0.107560 0.321113
Spine -0.837214 5.305894 1.119198
Head 8.539540 -20.278400 -9.724156
LeftShoulder -4.742265 -5.841656 23.716389
LeftArm -7.106013 43.466257 -104.220395
LeftForeArm 3.790123 0.000000 16.000660
LeftHand 10.336891 -0.000000 -5.987097
LeftHandThumb1 -26.253704 0.000000 33.147579
RightShoulder -12.058323 2.621828 -40.315310
RightArm 35.829881 63.119083 66.643231
RightForeArm 20.590001 -0.000000 98.396291
RightHand 29.299588 -0.000000 -17.882880
RightHandThumb1 -24.326973 -0.000000 -32.862282
LeftUpLeg 10.585382 0.999717 -0.342932
LeftLeg 2.116023 -0.000000 -0.000000
LeftFoot -18.531975 12.351105 -23.466231
LeftToeBase 16.669174 -0.000000 -0.000000
RightUpLeg 9.434994 -7.625791 1.359814
RightLeg 0.300218 -0.000000 -0.000000
RightFoot -12.984075 -13.816001 14.067547
RightToeBase 10.273195 -0.000000 -0.000000
2215
root 3.898840 32.286900 1.358811 -3.125490 -0.062104 0.330193
Spine -0.846880 5.139010 1.052300
Head 8.503594 -20.229121 -9.590209
LeftShoulder -4.812485 -5.812701 23.742901
LeftArm -7.037436 43.448228 -104.197664
LeftForeArm 3.897922 -0.000000 15.940079
LeftHand 10.311848 -0.000000 -5.650340
LeftHandThumb1 -26.253704 0.000000 33.147579
RightShoulder -12.276508 2.259458 -40.269446
RightArm 34.426910 63.251983 65.009631
RightForeArm 20.367471 0.000000 98.453554
RightHand 29.356596 0.000000 -17.816967
RightHandThumb1 -24.326973 -0.000000 -32.862282
LeftUpLeg 10.595237 0.881564 -0.355518
LeftLeg 2.104959 -0.000000 -0.000000
LeftFoot -18.551735 12.384315 -23.537353
LeftToeBase 16.614293 -0.000000 -0.000000
RightUpLeg 9.440285 -7.728931 1.347204
RightLeg 0.327854 -0.000000 -0.000000
RightFoot -13.016181 -13.743786 14.081000
RightToeBase 10.329040 -0.000000 -0.000000
2216
root 3.894136 32.286180 1.369528 -3.116126 -0.015609 0.335918
Spine -0.863066 4.989299 0.996908
Head 8.486014 -20.237193 -9.463036
LeftShoulder -4.876813 -5.804677 23.776024
LeftArm -7.005643 43.462807 -104.213876
LeftForeArm 3.924834 -0.000000 15.918395
LeftHand 10.283888 -0.000000 -5.497930
LeftHandThumb1 -26.253704 0.000000 33.147579
RightShoulder -12.493827 1.921740 -40.211828
RightArm 32.815399 63.377157 63.171520
RightForeArm 20.233055 -0.000000 98.529024
RightHand 29.371068 -0.000000 -17.833650
RightHandThumb1 -24.326973 -0.000000 -32.862282
LeftUpLeg 10.606065 0.833763 -0.355133
LeftLeg 2.088188 -0.000000 -0.000000
LeftFoot -18.548553 12.387714 -23.517316
LeftToeBase 16.670571 -0.000000 -0.000000
RightUpLeg 9.463057 -7.776713 1.348304
RightLeg 0.314055 -0.000000 -0.000000
RightFoot -13.033457 -13.756169 14.078652
RightToeBase 10.262589 -0.000000 -0.000000
2217
root 3.890824 32.286141 1.383408 -3.120684 0.030416 0.338836
Spine -0.873007 4.841501 0.950319
Head 8.462197 -20.212431 -9.328297
LeftShoulder -4.958332 -5.750457 23.809193
LeftArm -6.932665 43.478930 -104.200721
LeftForeArm 3.912028 -0.000000 15.895795
LeftHand 10.405820 -0.000000 -5.563674
LeftHandThumb1 -26.253704 0.000000 33.147579
RightShoulder -12.606514 1.805399 -40.192273
RightArm 30.642850 63.571476 60.888069
RightForeArm 20.127024 -0.000000 98.657942
RightHand 29.257255 -0.000000 -17.588897
RightHandThumb1 -24.326973 -0.000000 -32.862282
LeftUpLeg 10.633663 0.816499 -0.345929
LeftLeg 2.077867 -0.000000 -0.000000
LeftFoot -18.530411 12.348918 -23.517492
LeftToeBase 16.672757 -0.000000 -0.000000
RightUpLeg 9.513079 -7.807706 1.345006
RightLeg 0.285253 -0.000000 -0.000000
RightFoot -13.036482 -13.777293 14.076856
RightToeBase 10.273805 -0.000000 -0.000000
